<svg width="52" height="51" viewBox="0 0 52 51" fill="none" xmlns="http://www.w3.org/2000/svg">
<rect x="0.5" y="0.5" width="51" height="50" rx="13.5" fill="#D9D9D9" fill-opacity="0.5" stroke="#1E5631"/>
<path d="M12 24C11.4477 24 11 24.4477 11 25C11 25.5523 11.4477 26 12 26V25V24ZM39.7071 25.7071C40.0976 25.3166 40.0976 24.6834 39.7071 24.2929L33.3431 17.9289C32.9526 17.5384 32.3195 17.5384 31.9289 17.9289C31.5384 18.3195 31.5384 18.9526 31.9289 19.3431L37.5858 25L31.9289 30.6569C31.5384 31.0474 31.5384 31.6805 31.9289 32.0711C32.3195 32.4616 32.9526 32.4616 33.3431 32.0711L39.7071 25.7071ZM12 25V26H39V25V24H12V25Z" fill="#1E5631"/>
</svg>
