<svg width="349" height="220" viewBox="0 0 349 220" fill="none" xmlns="http://www.w3.org/2000/svg">
<g filter="url(#filter0_d_3007_543)">
<path d="M332.942 219.563C341.779 219.563 348.942 212.4 348.942 203.563V0H0V203.563C8.29792e-05 212.4 7.16352 219.563 16 219.563H332.942ZM346.942 203.563L346.938 203.919C346.937 203.962 346.934 204.006 346.933 204.049C346.938 203.888 346.942 203.726 346.942 203.563ZM346.925 204.218C346.919 204.332 346.913 204.445 346.905 204.559C346.913 204.445 346.92 204.332 346.925 204.218ZM346.411 207.396L346.332 207.665C346.326 207.685 346.319 207.705 346.312 207.725C346.346 207.615 346.38 207.506 346.411 207.396Z" fill="#496B54"/>
</g>
<defs>
<filter id="filter0_d_3007_543" x="-7.2" y="0" width="363.342" height="235.763" filterUnits="userSpaceOnUse" color-interpolation-filters="sRGB">
<feFlood flood-opacity="0" result="BackgroundImageFix"/>
<feColorMatrix in="SourceAlpha" type="matrix" values="0 0 0 0 0 0 0 0 0 0 0 0 0 0 0 0 0 0 127 0" result="hardAlpha"/>
<feOffset dy="9"/>
<feGaussianBlur stdDeviation="3.6"/>
<feComposite in2="hardAlpha" operator="out"/>
<feColorMatrix type="matrix" values="0 0 0 0 0 0 0 0 0 0 0 0 0 0 0 0 0 0 0.35 0"/>
<feBlend mode="normal" in2="BackgroundImageFix" result="effect1_dropShadow_3007_543"/>
<feBlend mode="normal" in="SourceGraphic" in2="effect1_dropShadow_3007_543" result="shape"/>
</filter>
</defs>
</svg>
