<svg width="52" height="51" viewBox="0 0 52 51" fill="none" xmlns="http://www.w3.org/2000/svg">
<rect x="-0.5" y="0.5" width="51" height="50" rx="13.5" transform="matrix(-1 0 0 1 51 0)" fill="#D9D9D9" fill-opacity="0.5" stroke="#1E5631"/>
<path d="M40 24C40.5523 24 41 24.4477 41 25C41 25.5523 40.5523 26 40 26V25V24ZM12.2929 25.7071C11.9024 25.3166 11.9024 24.6834 12.2929 24.2929L18.6569 17.9289C19.0474 17.5384 19.6805 17.5384 20.0711 17.9289C20.4616 18.3195 20.4616 18.9526 20.0711 19.3431L14.4142 25L20.0711 30.6569C20.4616 31.0474 20.4616 31.6805 20.0711 32.0711C19.6805 32.4616 19.0474 32.4616 18.6569 32.0711L12.2929 25.7071ZM40 25V26H13V25V24H40V25Z" fill="#1E5631"/>
</svg>
