<svg width="50" height="166" viewBox="0 0 50 166" fill="none" xmlns="http://www.w3.org/2000/svg">
<path d="M29.6148 16.9381C30.2167 16.0393 31.2816 15.9721 32.2592 15.9717L33.5298 15.9921C35.3207 16.2187 36.5653 17.299 37.7414 18.5476L38.7826 19.6281C39.6179 20.4815 40.4845 21.3135 41.2266 22.2516C42.3333 23.6505 42.4424 24.6708 42.442 26.3442C42.4418 27.5308 42.5526 28.651 41.4993 29.4661C40.9735 29.8731 40.3424 29.9433 39.699 29.9344C39.6586 29.9338 39.6274 29.9145 39.6211 29.9559C38.7788 35.5617 32.25 34.7755 31.7357 30.0219L26.8312 29.9949L26.1876 29.9953L26.0493 29.9627C26.1022 29.9191 26.1937 29.9009 26.2583 29.8788L26.7168 29.7205C26.7486 29.678 26.995 29.5972 27.0594 29.5662C28.4763 28.8858 29.4235 27.3802 29.5967 25.8401C29.6509 25.3578 29.6186 24.8447 29.6187 24.3581L29.6178 22.2462L29.6148 16.9381ZM34.6612 18.5299C33.5282 18.6976 33.6758 19.5757 33.675 20.4417C33.6739 21.5615 33.5941 22.5588 34.9368 22.9702C35.2129 23.0548 35.612 23.0085 35.9035 23.0092L37.5617 23.0199C38.1319 22.9758 38.6772 22.479 38.5115 21.863L38.5033 21.8312C38.3558 21.3041 37.0387 20.2122 36.6242 19.8106C36.0503 19.2545 35.5567 18.4846 34.6612 18.5299Z" fill="#1E5631"/>
<path d="M11.4734 15.3716L12.1986 15.3639C12.4599 14.2923 13.1869 13.3229 14.1283 12.7496C15.3965 11.9773 16.7992 12.0409 18.2267 12.0401L23.9635 12.0362C24.7668 12.0347 25.6212 11.964 26.4068 12.1583C28.3212 12.6319 29.5565 14.1392 29.5651 16.1012C29.5663 16.3665 29.5407 16.6817 29.615 16.9381L29.6185 22.2462L29.6186 24.3582C29.6185 24.8447 29.6509 25.3578 29.5966 25.8401C29.4234 27.3803 28.4763 28.8859 27.0594 29.5663C26.995 29.5972 26.7486 29.6781 26.7168 29.7206L26.2582 29.8788C26.1936 29.901 26.1022 29.9192 26.0493 29.9627L26.1875 29.9933L23.499 29.945C23.5009 30.2123 23.5004 30.4972 23.4472 30.7807C22.9105 33.6339 19.2229 34.948 17.1082 32.7952C16.5789 32.2564 15.9893 31.2828 15.9551 30.4924L15.9172 30.2193L15.9031 30.1314C15.8767 29.989 15.6908 30.0614 15.5793 30.0571C14.7953 30.0266 13.9488 29.7333 13.3035 29.3008C11.7459 28.2566 11.4364 26.5357 11.4379 24.7847L11.4394 22.3479C11.4405 22.0578 11.4362 21.7479 11.4923 21.4629L11.5283 21.234C11.5382 21.16 11.5547 21.1267 11.607 21.0735L11.6221 21.0588C11.4567 21.0321 11.2802 21.0514 11.1113 21.0327L11.0836 21.0294L10.3718 21.0237C10.2283 21.0222 10.0669 21.0295 9.92764 20.9953L9.89941 20.9877C9.07682 20.7746 9.1865 19.6059 10.0624 19.4641C10.5235 19.3926 11.0068 19.495 11.4594 19.4283C11.412 18.7535 11.5684 17.6828 11.7119 17.04C11.7837 17.0221 11.8421 16.9883 11.8467 16.9082C11.7581 16.9068 11.6646 16.9102 11.5779 16.8901L11.5347 16.8794L9.34082 16.8664C9.19561 16.8649 9.05146 16.8713 8.91768 16.8055L8.88867 16.7909C8.30536 16.5145 8.28049 15.5851 8.91799 15.3805L8.9436 15.3729C9.14088 15.3127 9.45559 15.3649 9.66524 15.3659L11.4734 15.3716Z" fill="#AAEAC0"/>
<path d="M11.5347 16.8702L9.34082 16.8662C9.19561 16.8647 9.05146 16.8711 8.91768 16.8053L8.88867 16.7906C8.30536 16.5143 8.28049 15.5849 8.91799 15.3802L8.9436 15.3726C9.14088 15.3125 9.45559 15.3647 9.66524 15.3657L11.4734 15.3714L13.9631 15.3755C14.1262 15.3762 14.2977 15.3724 14.4564 15.4134L14.4847 15.4203C15.0982 15.5813 14.9923 16.7493 14.1613 16.8517C13.5613 16.9256 12.1597 16.9042 11.5347 16.8702Z" fill="#1E5631"/>
<path d="M10.0625 19.4639L21.6188 19.4306C22.0233 19.4306 22.6584 19.3281 23.0234 19.5479L23.054 19.5659C23.6367 19.92 23.596 20.7839 22.9294 20.9854L22.8946 20.9964C22.7391 21.0413 22.5651 21.0269 22.4044 21.0261L19.5303 21.0217L11.0838 21.0253L10.372 21.0235C10.2284 21.022 10.067 21.0293 9.92778 20.9951L9.89956 20.9876C9.07697 20.7744 9.18665 19.6057 10.0625 19.4639Z" fill="url(#paint0_linear_202_420)"/>
<path d="M18.7625 26.3633C20.9388 25.7701 23.2524 27.344 23.4653 29.5587C23.4766 29.676 23.4728 29.8113 23.4992 29.925C23.501 30.2121 23.5006 30.497 23.4473 30.7804C22.9106 33.6336 19.2231 34.9478 17.1084 32.795C16.5791 32.2562 15.9895 31.2826 15.9553 30.4921L15.9173 30.219C15.9119 28.5225 17.0785 26.7936 18.7625 26.3633Z" fill="url(#paint1_linear_202_420)"/>
<path d="M31.1195 143.712L32.2611 155.258C32.2792 155.476 32.3129 155.698 32.3188 155.917C32.3401 156.723 30.2153 156.459 29.7768 156.339C29.279 156.203 28.8096 156.001 28.3325 155.808L21.774 153.188C20.8509 152.814 19.3028 152.365 18.5495 151.752C18.4982 151.689 18.4513 151.635 18.4305 151.555L18.4233 151.526C18.2958 151.067 18.4122 150.447 18.4643 149.984L19.1455 143.908C19.2275 143.971 19.3237 144.178 19.3886 144.271L22.2211 147.86C22.5625 148.26 22.9036 148.688 23.31 149.026L23.6882 149.31C24.2572 149.673 25.003 149.789 25.6579 149.637C26.7435 149.385 27.5105 148.247 28.1882 147.453L29.8368 145.462C30.2886 144.896 30.7352 144.327 31.1195 143.712Z" fill="#70BE8A"/>
<path d="M14.5102 138.08C15.6531 138.023 15.841 138.542 16.3763 139.43L17.3895 141.165C17.5726 141.489 17.8318 141.86 17.9185 142.225L17.9256 142.257C17.9977 142.561 17.9313 142.959 17.9075 143.268L17.2552 150.196C17.0112 152.012 16.8064 151.964 15.3138 152.694L13.0403 153.805C12.2284 154.199 11.4335 154.679 10.5895 154.994C8.38189 155.71 6.74323 153.731 7.46011 151.554C7.72263 150.756 8.10408 149.981 8.42291 149.203L9.71666 145.983L11.9135 140.775C12.4613 139.429 12.7426 138.243 14.5102 138.08Z" fill="#70BE8A"/>
<path d="M35.6023 137.984C37.0272 137.888 37.5484 139.137 38.0663 140.195L42.219 148.124C43.1561 150.092 42.3981 151.704 40.4852 152.601L37.6117 153.938L34.3489 155.425C34.071 155.537 33.806 155.653 33.5104 155.711L32.3559 143.241C32.2665 142.609 32.2656 141.944 32.5833 141.376L33.0265 140.607C33.7376 139.34 34.0062 138.145 35.6023 137.984Z" fill="#70BE8A"/>
<path d="M24.8307 123.073C28.2625 122.814 31.7387 125.088 33.3125 128.048C35.2456 131.684 34.4753 134.688 32.7384 138.237C31.2457 141.287 29.3217 144.048 27.1229 146.629L26.3956 147.49C26.1789 147.742 25.9374 148.039 25.6359 148.193L25.5981 148.211C25.4759 148.272 25.3479 148.296 25.2154 148.324C24.7249 148.331 24.4515 148.242 24.0797 147.888C23.4088 147.248 22.8263 146.486 22.2448 145.766L19.1764 141.5C17.5594 138.978 15.3152 134.952 15.5782 131.812C15.9742 127.082 20.0709 123.159 24.8307 123.073ZM24.7546 127.631C20.3888 128.038 18.7561 133.314 22.093 136.022C22.9879 136.749 24.1406 137.091 25.2868 137.026C27.4986 136.917 29.4223 135.205 29.718 132.996C30.106 130.099 27.7965 127.444 24.7947 127.628L24.7546 127.631Z" fill="#1E5631"/>
<path d="M27.81 132.286C27.9532 132.216 28.3385 131.898 28.4657 132.077C28.4671 132.318 28.4653 132.549 28.4303 132.788C28.2504 133.767 27.7992 134.6 26.9649 135.172C25.4949 136.181 23.2294 135.787 22.2439 134.284L22.2152 134.235C22.2243 134.074 22.0381 133.849 21.9742 133.693L22.2403 133.575C22.5429 133.425 22.8892 133.43 23.2224 133.242L24.7344 133.199L25.378 133.131C25.7668 133.096 26.1889 133.061 26.5595 132.935C26.9145 132.813 27.2014 132.567 27.5415 132.433L27.5852 132.416C27.6541 132.363 27.7329 132.326 27.81 132.286Z" fill="url(#paint2_linear_202_420)"/>
<path d="M21.8342 131.334C21.8495 131.237 21.8952 131.14 21.9323 131.05C23.1077 128.193 27.0014 128.14 28.1574 130.97C28.3127 131.33 28.4249 131.687 28.4658 132.077C28.3385 131.898 27.9533 132.216 27.8101 132.286C27.733 132.326 27.6541 132.363 27.5852 132.416L27.5416 132.433C27.2015 132.567 26.9145 132.814 26.5595 132.935C26.1889 133.061 25.7669 133.096 25.378 133.131L24.7344 133.199L23.2225 133.242C22.8893 133.43 22.543 133.425 22.2404 133.575L21.9743 133.693C22.0381 133.849 22.2244 134.074 22.2152 134.235C21.819 133.708 21.6453 133.022 21.6575 132.371C21.575 132.097 21.7439 131.588 21.8342 131.334Z" fill="url(#paint3_linear_202_420)"/>
<path d="M23.4844 69.3535C24.5849 68.8819 25.8311 68.8819 26.9316 69.3535L34.5322 72.6113C35.0684 72.8411 35.4159 73.3679 35.416 73.9512V81.6123C35.4159 84.438 34.0513 87.09 31.752 88.7324L26.9033 92.1953C25.8892 92.9197 24.5268 92.9197 23.5127 92.1953L18.6641 88.7324C16.3647 87.09 15.0001 84.438 15 81.6123V73.9512C15.0001 73.3679 15.3477 72.8411 15.8838 72.6113L23.4844 69.3535ZM30.208 76.584C29.7767 76.239 29.1468 76.309 28.8018 76.7402L23.667 83.1592L21.54 81.0332C21.1495 80.6427 20.5165 80.6427 20.126 81.0332C19.7355 81.4237 19.7355 82.0568 20.126 82.4473L22.6475 84.9688C23.2796 85.6008 24.3214 85.5437 24.8799 84.8457L30.3643 77.9902C30.7093 77.559 30.6392 76.929 30.208 76.584Z" fill="#1E5631"/>
<defs>
<linearGradient id="paint0_linear_202_420" x1="19.9075" y1="23.9496" x2="12.8781" y2="16.5433" gradientUnits="userSpaceOnUse">
<stop stop-color="#298D4B"/>
<stop offset="1" stop-color="#78C894"/>
</linearGradient>
<linearGradient id="paint1_linear_202_420" x1="23.1474" y1="31.6126" x2="16.2922" y2="28.4756" gradientUnits="userSpaceOnUse">
<stop stop-color="#19813C"/>
<stop offset="1" stop-color="#70BE8A"/>
</linearGradient>
<linearGradient id="paint2_linear_202_420" x1="25.7122" y1="135.652" x2="25.1535" y2="132.599" gradientUnits="userSpaceOnUse">
<stop stop-color="#19813C"/>
<stop offset="1" stop-color="#00D348"/>
</linearGradient>
<linearGradient id="paint3_linear_202_420" x1="24.9685" y1="134.288" x2="25.1634" y2="128.863" gradientUnits="userSpaceOnUse">
<stop stop-color="#00D348"/>
<stop offset="1" stop-color="#00D348"/>
</linearGradient>
</defs>
</svg>
